<svg width="47" height="47" viewBox="0 0 47 47" fill="none" xmlns="http://www.w3.org/2000/svg">
<path d="M23.504 14.4623C18.5014 14.4623 14.4663 18.4974 14.4663 23.5C14.4663 28.5026 18.5014 32.5377 23.504 32.5377C28.5065 32.5377 32.5416 28.5026 32.5416 23.5C32.5416 18.4974 28.5065 14.4623 23.504 14.4623ZM23.504 29.3757C20.2712 29.3757 17.6283 26.7407 17.6283 23.5C17.6283 20.2593 20.2633 17.6243 23.504 17.6243C26.7446 17.6243 29.3796 20.2593 29.3796 23.5C29.3796 26.7407 26.7368 29.3757 23.504 29.3757ZM35.0193 14.0927C35.0193 15.2646 34.0754 16.2007 32.9113 16.2007C31.7393 16.2007 30.8033 15.2568 30.8033 14.0927C30.8033 12.9285 31.7472 11.9847 32.9113 11.9847C34.0754 11.9847 35.0193 12.9285 35.0193 14.0927ZM41.0051 16.2321C40.8714 13.4083 40.2264 10.9071 38.1577 8.84626C36.0969 6.78545 33.5956 6.14047 30.7718 5.99888C27.8615 5.83371 19.1385 5.83371 16.2282 5.99888C13.4123 6.1326 10.911 6.77759 8.84235 8.83839C6.77368 10.8992 6.13656 13.4005 5.99498 16.2243C5.8298 19.1346 5.8298 27.8576 5.99498 30.7679C6.12869 33.5917 6.77368 36.0929 8.84235 38.1537C10.911 40.2146 13.4044 40.8595 16.2282 41.0011C19.1385 41.1663 27.8615 41.1663 30.7718 41.0011C33.5956 40.8674 36.0969 40.2224 38.1577 38.1537C40.2185 36.0929 40.8635 33.5917 41.0051 30.7679C41.1703 27.8576 41.1703 19.1424 41.0051 16.2321ZM37.2453 33.8906C36.6318 35.4322 35.444 36.6199 33.8945 37.2413C31.5741 38.1616 26.0682 37.9492 23.504 37.9492C20.9398 37.9492 15.4259 38.1537 13.1134 37.2413C11.5717 36.6278 10.384 35.4401 9.76263 33.8906C8.84235 31.5702 9.05472 26.0642 9.05472 23.5C9.05472 20.9358 8.85022 15.422 9.76263 13.1095C10.3762 11.5678 11.5639 10.3801 13.1134 9.75867C15.4338 8.83839 20.9398 9.05076 23.504 9.05076C26.0682 9.05076 31.582 8.84626 33.8945 9.75867C35.4362 10.3722 36.6239 11.5599 37.2453 13.1095C38.1656 15.4298 37.9532 20.9358 37.9532 23.5C37.9532 26.0642 38.1656 31.578 37.2453 33.8906Z" fill="#898EA3"/>
</svg>
