<svg width="364" height="405" viewBox="0 0 364 405" fill="none" xmlns="http://www.w3.org/2000/svg">
<path fill-rule="evenodd" clip-rule="evenodd" d="M95.1915 293.853C73.1891 278.905 43.8419 296.862 52.5458 333.554C56.1697 348.697 73.3509 354.683 88.7202 357.11C118.262 361.802 155.18 355.751 155.569 355.686C160.94 354.618 170.485 353.292 174.982 349.862C175.676 349.439 176.274 348.875 176.737 348.206C177.2 347.538 177.518 346.78 177.67 345.982C177.822 345.183 177.806 344.362 177.622 343.57C177.437 342.778 177.089 342.034 176.6 341.385C171.973 333.393 164.078 332.39 156.022 336.37C157.995 319.803 137.417 311.455 122.63 317.991C118.202 320.038 114.239 322.967 110.981 326.598C111.633 320.214 110.502 313.774 107.715 307.994C104.927 302.213 100.593 297.319 95.1915 293.853ZM140.49 318.865C144.763 319.875 148.59 322.249 151.395 325.627C152.674 327.35 153.566 329.33 154.007 331.43C154.448 333.53 154.429 335.701 153.951 337.793C153.9 337.966 153.904 338.15 153.961 338.32C154.019 338.49 154.128 338.638 154.273 338.745C154.418 338.851 154.592 338.91 154.772 338.913C154.952 338.916 155.128 338.864 155.277 338.764C158.553 336.669 162.393 335.63 166.278 335.787C168.207 336.041 170.045 336.763 171.63 337.892C173.215 339.02 174.499 340.519 175.371 342.258C180.321 350.509 164.758 353.065 155.342 354.91C154.986 354.91 118.262 360.378 89.0114 355.363C74.6775 352.936 58.014 347.338 54.7137 333.199C46.5922 298.707 73.5127 282.108 93.8325 295.956C99.4217 299.532 103.786 304.729 106.342 310.853C108.897 316.976 109.523 323.733 108.134 330.222C107.875 331.581 109.202 332.551 110.399 331.031C119.879 318.832 130.784 316.017 140.523 318.865H140.49ZM273.637 204.258C281.726 203.611 286.58 202.964 292.339 202.867C292.511 202.867 292.675 202.799 292.797 202.677C292.918 202.556 292.986 202.392 292.986 202.22C292.986 202.048 292.918 201.884 292.797 201.762C292.675 201.641 292.511 201.573 292.339 201.573C286.035 200.713 279.658 200.517 273.313 200.99C273.098 201.003 272.887 201.058 272.693 201.153C272.499 201.248 272.326 201.381 272.185 201.543C272.043 201.706 271.935 201.896 271.868 202.101C271.801 202.306 271.775 202.522 271.793 202.738C271.804 202.962 271.862 203.182 271.963 203.383C272.064 203.584 272.206 203.762 272.379 203.905C272.553 204.048 272.754 204.153 272.971 204.214C273.187 204.275 273.414 204.29 273.637 204.258ZM161.263 116.475C167.929 127.745 176.838 137.524 187.44 145.208C182.424 145.758 175.338 147.505 177.538 152.067C179.448 155.918 182.133 154.818 182.748 155.303C183.363 155.788 183.039 156.403 183.071 156.63C183.363 159.574 185.336 162.777 188.216 162.357C187.698 166.919 178.056 228.429 177.668 231.794C170.323 231.276 140.393 229.593 134.505 231.308C126.059 233.767 122.403 283.92 127.839 290.876C134.019 298.739 217.693 301.23 223.808 299.483C225.135 299.095 225.879 297.509 226.364 296.248C229.6 286.541 229.6 254.928 229.6 244.769C229.6 242.407 227.173 240.821 225.038 239.818C215.072 235.029 190.287 232.829 179.286 232.02C179.448 231.697 188.766 186.721 190.19 161.321C193.425 157.665 190.19 146.276 190.19 145.952L191.711 145.111C214.36 131.003 229.276 113.919 231.121 86.8693C232.674 64.2199 223.679 46.2297 201.32 42.5411C177.636 38.6583 162.104 50.4361 155.763 73.5062C153.624 80.6549 153.008 88.1727 153.956 95.5742C154.903 102.976 157.393 110.096 161.263 116.475ZM227.27 244.574C227.27 252.275 227.464 290.262 223.582 296.701C218.955 287.252 207.921 269.359 207.727 269.036C207.702 268.981 207.665 268.931 207.621 268.89C207.576 268.848 207.524 268.816 207.467 268.795C207.409 268.774 207.349 268.765 207.288 268.767C207.227 268.769 207.167 268.784 207.112 268.809C207.057 268.835 207.007 268.871 206.966 268.916C206.925 268.96 206.893 269.013 206.872 269.07C206.851 269.127 206.841 269.188 206.843 269.248C206.846 269.309 206.86 269.369 206.886 269.424C210.892 279.359 216.167 288.734 222.579 297.315C214.425 298.383 143.176 296.992 130.46 290.844C140.167 283.208 153.53 266.868 154.468 265.865C154.921 265.444 154.307 264.732 153.854 265.153C145.323 273.105 137.202 281.486 129.522 290.262C123.73 289.259 127.192 240.174 134.181 233.444C134.505 233.767 145.085 242.859 152.203 248.554C156.604 252.081 175.306 267.159 180.548 265.315C188.604 262.467 217.175 247.907 226.591 243.183C226.805 243.345 226.978 243.556 227.096 243.798C227.215 244.039 227.274 244.305 227.27 244.574ZM225.717 242.665C217.304 246.354 181.939 262.5 179.771 263.244C174.885 264.959 140.167 236.809 135.184 232.991C142.885 231.211 213.648 234.414 225.717 242.665ZM187.213 159.704C184.657 158.312 186.21 154.365 183.977 153.232C182.263 152.229 181.033 153.847 179.577 151.129C178.121 148.411 186.048 146.761 188.831 146.146C190.157 147.764 190.513 161.58 187.213 159.704ZM200.867 44.5795C222.029 48.0417 229.988 65.1259 228.888 86.4487C228.188 103.077 220.984 118.764 208.827 130.13C203.02 135.778 196.582 140.74 189.64 144.917C189.538 144.98 189.42 145.013 189.3 145.013C189.18 145.013 189.062 144.98 188.96 144.917C167.799 129.903 150.391 103.339 156.863 76.9683C157.801 73.9268 163.108 38.4318 200.867 44.6766V44.5795Z" fill="#191D32"/>
<path fill-rule="evenodd" clip-rule="evenodd" d="M152.076 286.087C152.058 286.299 152.083 286.513 152.148 286.716C152.213 286.92 152.318 287.108 152.457 287.27C152.595 287.432 152.764 287.566 152.954 287.663C153.144 287.759 153.352 287.818 153.564 287.834L182.685 289.646C182.857 289.667 183.03 289.62 183.166 289.514C183.303 289.407 183.392 289.251 183.413 289.08C183.434 288.908 183.387 288.735 183.281 288.598C183.175 288.462 183.018 288.373 182.847 288.352C171.134 286.507 162.462 285.472 153.92 284.566C153.698 284.539 153.473 284.558 153.259 284.62C153.044 284.683 152.845 284.789 152.672 284.931C152.5 285.073 152.358 285.249 152.255 285.448C152.153 285.646 152.092 285.864 152.076 286.087ZM290.885 63.0866L292.406 63.9278C292.062 67.4652 291.965 71.0222 292.114 74.5731C292.826 102.141 302.533 149.705 302.824 149.996C293.506 150.675 253.06 153.555 252.898 162.712C252.898 169.636 252.898 187.691 253.966 201.022C254.322 205.034 255.228 216.553 258.723 217.556C264.482 219.174 348.479 216.812 354.692 208.917C360.16 201.928 356.471 151.808 348.026 149.349C341.203 148.789 334.356 148.595 327.512 148.766C319.948 148.699 312.385 149.066 304.863 149.866C304.863 146.631 296.224 99.8111 293.926 76.4821C294.348 76.8869 294.872 77.1698 295.441 77.3008C296.011 77.4319 296.606 77.4061 297.162 77.2263C298.111 77.0563 299.008 76.6686 299.783 76.0938C301.206 74.8643 300.786 73.57 300.753 72.4376C300.753 72.114 300.753 71.9198 301.401 71.6934C309.198 68.4577 308.066 62.6659 302.598 62.8924C299.621 62.8924 294.573 64.8662 294.185 64.0896C305.259 56.326 314.547 46.2874 321.429 34.6453C325.341 28.2398 327.845 21.0758 328.777 13.6286C329.708 6.18134 329.046 -1.37888 326.833 -8.55048C320.361 -31.6206 304.96 -43.3983 281.243 -39.5155C258.852 -35.8269 249.922 -17.6426 251.442 4.84506C253.287 31.7656 268.009 48.9145 290.885 63.0866ZM348.479 152.002C355.209 159.8 359.286 205.325 353.333 208.82C345.543 199.978 337.314 191.533 328.677 183.517C328.224 183.096 327.577 183.808 328.03 184.229C328.483 184.65 343.561 202.64 352.362 209.467C339.84 215.356 268.979 216.715 259.952 215.518C266.341 206.921 271.614 197.549 275.645 187.626C275.696 187.515 275.701 187.387 275.659 187.272C275.617 187.157 275.53 187.063 275.418 187.012C275.307 186.96 275.179 186.955 275.064 186.997C274.949 187.04 274.855 187.126 274.804 187.238C273.995 188.662 264.191 204.193 258.949 214.903C255.066 208.431 255.131 170.316 255.26 162.777C255.272 162.443 255.397 162.123 255.616 161.871C255.94 162.065 295.997 181.284 302.63 184.261C303.439 184.617 303.633 184.876 304.41 184.261C304.701 184.132 346.57 153.458 348.479 152.002ZM347.703 151.322L303.439 182.126C303.083 181.964 269.497 166.368 256.393 161.159C267.912 152.131 343.787 149.413 347.832 151.322H347.703ZM304.539 66.0633C304.539 67.2929 301.789 68.9754 300.365 69.5255C299.774 69.7116 299.255 70.0756 298.878 70.5678C298.502 71.0601 298.287 71.6566 298.262 72.2758C298.262 73.9907 299.039 74.4436 296.482 75.0584C293.926 75.6732 293.797 68.0694 293.926 65.3515C296.062 66.1604 304.28 63.5719 304.539 66.0633ZM281.631 -37.1212C319.261 -43.3336 324.471 -6.64146 325.053 -4.76479C332.107 20.1173 316.867 44.4816 296.677 60.7245C295.569 61.6578 294.413 62.5326 293.214 63.3454C286.251 58.9877 279.746 53.9359 273.801 48.2673C261.65 36.9001 254.456 21.211 253.772 4.58622C252.381 -16.5102 260.47 -33.659 281.631 -37.1212ZM204.105 54.3827C216.659 65.0279 219.539 84.0211 213.585 98.6786C213.517 98.8373 213.514 99.0169 213.578 99.1777C213.641 99.3385 213.766 99.4674 213.925 99.536C214.084 99.6047 214.263 99.6075 214.424 99.5437C214.585 99.48 214.714 99.3551 214.783 99.1963C222.127 83.5034 219.604 63.6043 206.24 51.8913C206.09 51.7396 205.911 51.6193 205.714 51.5371C205.517 51.455 205.305 51.4127 205.092 51.4127C204.878 51.4127 204.667 51.455 204.47 51.5371C204.273 51.6193 204.094 51.7396 203.943 51.8913C203.774 52.0574 203.643 52.258 203.559 52.4794C203.475 52.7007 203.439 52.9376 203.454 53.174C203.47 53.4103 203.536 53.6406 203.648 53.8492C203.76 54.0578 203.916 54.2397 204.105 54.3827Z" fill="#191D32"/>
<path fill-rule="evenodd" clip-rule="evenodd" d="M303.211 206.912C296.125 206.362 277.326 207.106 274.091 207.268C273.877 207.276 273.666 207.327 273.473 207.419C273.279 207.51 273.106 207.64 272.964 207.8C272.822 207.96 272.713 208.148 272.646 208.351C272.578 208.554 272.552 208.769 272.57 208.983C272.582 209.2 272.637 209.412 272.732 209.607C272.826 209.803 272.959 209.978 273.121 210.122C273.283 210.266 273.473 210.377 273.678 210.448C273.883 210.519 274.1 210.549 274.317 210.536C278.879 210.18 302.176 208.174 303.276 208.206C303.448 208.198 303.609 208.121 303.724 207.994C303.839 207.866 303.899 207.698 303.891 207.527C303.882 207.355 303.806 207.194 303.678 207.079C303.551 206.963 303.383 206.903 303.211 206.912ZM291.369 -23.6921C304.894 -15.4412 314.018 1.6753 310.103 17.5299C310.054 17.7424 310.048 17.9624 310.084 18.1774C310.12 18.3923 310.198 18.5981 310.314 18.7829C310.548 19.1561 310.92 19.4212 311.349 19.5198C311.778 19.6185 312.229 19.5427 312.602 19.3091C312.975 19.0755 313.24 18.7032 313.339 18.2741C317.092 1.1576 307.385 -16.5414 292.016 -24.7275C291.951 -24.8083 291.868 -24.8725 291.774 -24.9146C291.68 -24.9567 291.576 -24.9756 291.473 -24.9696C291.37 -24.9637 291.27 -24.933 291.181 -24.8803C291.092 -24.8276 291.016 -24.7543 290.962 -24.6665C290.907 -24.5788 290.874 -24.4793 290.865 -24.3762C290.857 -24.2731 290.873 -24.1695 290.913 -24.0741C290.953 -23.9786 291.015 -23.8941 291.095 -23.8277C291.174 -23.7612 291.268 -23.7147 291.369 -23.6921Z" fill="#191D32"/>
<path fill-rule="evenodd" clip-rule="evenodd" d="M303.211 206.912C296.125 206.362 277.326 207.107 274.091 207.268C273.877 207.276 273.666 207.328 273.473 207.419C273.279 207.511 273.106 207.641 272.964 207.801C272.822 207.961 272.713 208.148 272.646 208.352C272.578 208.555 272.552 208.77 272.57 208.983C272.582 209.2 272.637 209.412 272.732 209.608C272.826 209.803 272.959 209.978 273.121 210.123C273.283 210.267 273.473 210.378 273.678 210.449C273.883 210.52 274.1 210.55 274.317 210.536C278.879 210.18 302.176 208.174 303.276 208.207C303.448 208.198 303.609 208.122 303.724 207.994C303.839 207.867 303.899 207.699 303.891 207.527C303.882 207.356 303.806 207.194 303.678 207.079C303.551 206.964 303.383 206.904 303.211 206.912Z" fill="#191D32"/>
<path fill-rule="evenodd" clip-rule="evenodd" d="M310.719 334.946C301.619 339.837 294.385 347.593 290.141 357.013C271.536 337.599 243.483 347.306 241.186 371.703C234.714 365.62 216.951 366.882 212.065 376.395C206.661 387.072 211.321 396.617 220.122 399.044C234.294 402.765 274.286 405.936 305.963 402.603C322.983 400.791 349.515 396.132 358.38 381.313C377.212 350.089 345.373 315.92 310.719 334.946ZM356.471 379.986C348.123 393.867 321.915 398.623 305.769 400.468C273.413 404.156 232.773 401.277 220.413 398.009C212.356 395.905 208.02 386.975 213.262 377.009C217.371 369.179 230.832 367.95 237.788 371.444C241.671 373.385 240.636 375.294 242.092 374.841C242.9 374.615 242.803 373.644 242.9 372.576C243.064 368.728 244.122 364.97 245.989 361.6C247.856 358.231 250.483 355.342 253.66 353.164C256.837 350.985 260.477 349.576 264.293 349.048C268.109 348.52 271.996 348.887 275.645 350.121C281.075 352.093 285.902 355.437 289.655 359.828C289.782 359.991 289.951 360.116 290.144 360.19C290.337 360.264 290.547 360.283 290.75 360.247C290.953 360.21 291.143 360.119 291.298 359.982C291.453 359.846 291.567 359.669 291.629 359.472C295.432 349.739 302.61 341.7 311.852 336.823C344.338 319.188 374.009 350.865 356.471 379.986Z" fill="#191D32"/>
<path fill-rule="evenodd" clip-rule="evenodd" d="M69.6733 -55.5037C69.8294 -55.3736 70.01 -55.2761 70.2044 -55.217C70.3987 -55.1578 70.603 -55.1382 70.8051 -55.1593C71.0072 -55.1804 71.203 -55.2418 71.3809 -55.3399C71.5589 -55.4379 71.7154 -55.5707 71.8412 -55.7302C82.0335 -68.3492 82.3247 -87.31 74.2032 -101.029C74.1629 -101.099 74.1091 -101.161 74.045 -101.21C73.9808 -101.259 73.9076 -101.296 73.8295 -101.317C73.6717 -101.359 73.5036 -101.337 73.362 -101.256C73.2204 -101.174 73.117 -101.04 73.0745 -100.882C73.032 -100.724 73.0539 -100.556 73.1355 -100.414C79.8009 -87.4718 79.1538 -69.1581 69.4468 -57.6069C69.2119 -57.2925 69.1047 -56.9009 69.1467 -56.5108C69.1887 -56.1206 69.3769 -55.7608 69.6733 -55.5037Z" fill="#191D32"/>
<path fill-rule="evenodd" clip-rule="evenodd" d="M49.4506 211.922C60.8401 211.21 86.7252 208.686 90.4785 197.814C91.7081 194.32 90.4785 190.049 85.7869 184.872C74.0091 172.479 58.8664 178.692 47.574 191.343C43.1411 185.519 36.3139 179.986 29.4544 182.413C27.0338 183.151 24.901 184.621 23.3485 186.619C21.7959 188.618 20.8998 191.048 20.7829 193.576C10.3318 189.434 -0.734113 189.014 0.0424404 200.306C0.0424404 200.888 -0.831182 204.545 5.34889 207.683C15.7353 213.054 37.8994 212.666 49.4506 211.922ZM0.916063 200.629C0.912925 200.576 0.912925 200.522 0.916063 200.468C0.366004 190.178 10.2347 191.117 19.7151 194.999C20.3946 195.258 22.2066 196.617 22.3036 194.029C22.3892 191.802 23.1818 189.661 24.5665 187.916C25.9512 186.17 27.856 184.912 30.0045 184.322C36.1845 182.251 42.947 188.366 46.4739 193.802C46.575 193.949 46.7103 194.069 46.8681 194.152C47.0259 194.235 47.2016 194.278 47.3798 194.278C47.5581 194.278 47.7337 194.235 47.8916 194.152C48.0494 194.069 48.1847 193.949 48.2858 193.802C50.5081 191.214 52.9911 188.861 55.6954 186.781C65.4023 179.242 75.5622 177.559 83.9749 186.457C87.9547 190.631 89.1843 194.029 88.1812 196.908C84.9456 206.259 59.0605 208.977 49.3536 209.851C38.0936 210.692 16.0912 211.566 5.89895 206.615C-0.0546289 203.93 0.980776 200.629 0.980776 200.629H0.916063ZM5.25182 138.635C9.94349 139.897 71.7766 135.108 76.4359 128.637C77.3601 126.85 77.8897 124.886 77.989 122.877C78.992 113.785 77.4713 82.5286 71.1941 80.8137C67.6026 79.843 49.7742 81.3962 45.309 81.8168C54.9512 45.9659 60.8401 -14.1199 55.9543 -24.2798C64.917 -29.5539 79.898 -44.5025 88.6666 -60.5513C101.189 -83.6214 91.9022 -110.445 75.724 -118.34C57.1838 -127.335 37.317 -119.052 31.3311 -90.2545C26.3482 -66.2137 37.8023 -44.2761 52.7186 -24.9917C47.7358 -23.7621 41.1998 -20.5265 44.4354 -16.5466C45.9885 -14.67 47.0563 -14.5729 47.671 -14.7023C48.9006 -14.9288 48.7065 -15.8671 50.4861 -13.311C51.6185 -11.6932 53.5275 -9.36352 55.4042 -10.0754C55.7278 12.5741 50.0331 53.8609 42.7529 81.7844C34.6638 82.6257 0.39836 86.3791 0.333647 94.5005C0.17916 106.177 0.654411 117.853 1.75733 129.478C2.21032 132.034 2.8898 138.02 5.25182 138.635ZM54.3688 -12.5345C52.2333 -14.2817 51.1332 -18.3586 47.8975 -17.1938C47.3475 -16.9996 47.2828 -16.6114 46.1179 -17.9703C44.403 -19.9117 51.0685 -23.212 53.3981 -24.0533C54.0099 -23.3507 54.4035 -22.4848 54.5306 -21.5619C55.2761 -18.7019 55.4738 -15.7267 55.113 -12.7933C54.9512 -11.7903 54.9512 -12.2756 54.3688 -12.5345ZM55.4366 -25.2181C47.9269 -34.3285 41.7898 -44.4881 37.2199 -55.3743C32.6859 -66.287 31.4376 -78.2863 33.6284 -89.8986C39.226 -116.916 57.4103 -124.779 74.721 -116.431C89.3784 -109.377 99.053 -84.0744 87.1458 -61.4249C78.7332 -45.3762 64.3346 -30.5893 55.4366 -25.2181ZM70.2234 82.5286C65.8877 86.3143 41.1027 108.834 37.8671 107.767C36.2169 107.217 7.03142 94.1446 4.05463 92.8827C13.5674 86.1202 63.6875 81.5579 70.2234 82.6581V82.5286ZM2.82509 94.5005C2.8468 94.1658 2.99761 93.8526 3.24572 93.6269C9.29637 96.8625 30.8457 107.831 37.1552 109.999C43.4647 112.167 66.729 87.3497 71.0971 83.014C75.724 88.6763 79.445 125.077 74.9475 128.507C69.5738 121.455 63.5152 114.952 56.8603 109.093C56.7664 109.042 56.6581 109.023 56.5523 109.039C56.4465 109.055 56.3491 109.106 56.2752 109.184C56.2014 109.262 56.1552 109.361 56.144 109.468C56.1328 109.574 56.1571 109.681 56.2131 109.773C61.2338 116.895 67.0646 123.41 73.5885 129.187C63.6551 133.943 15.347 137.049 6.6755 136.499C11.4016 129.63 15.1274 122.123 17.7414 114.206C17.769 114.095 17.7566 113.978 17.7066 113.875C17.6565 113.773 17.5719 113.691 17.4675 113.645C17.3632 113.598 17.2459 113.59 17.1362 113.622C17.0265 113.653 16.9315 113.723 16.8678 113.817C12.6756 120.918 8.89449 128.253 5.54303 135.787C2.8898 129.737 2.76038 101.295 2.82509 94.5005Z" fill="#191D32"/>
<path fill-rule="evenodd" clip-rule="evenodd" d="M32.593 128.345L57.8633 126.177C57.9983 126.146 58.1187 126.069 58.2049 125.961C58.2911 125.852 58.338 125.717 58.338 125.579C58.338 125.44 58.2911 125.305 58.2049 125.197C58.1187 125.088 57.9983 125.012 57.8633 124.98C47.574 124.98 39.7761 124.98 32.4312 125.336C32.2341 125.344 32.0407 125.392 31.8626 125.477C31.6846 125.562 31.5257 125.682 31.3956 125.831C31.2655 125.979 31.1669 126.152 31.1057 126.34C31.0446 126.527 31.0222 126.725 31.0399 126.922C31.0482 127.117 31.095 127.309 31.1776 127.486C31.2601 127.664 31.3769 127.823 31.5212 127.956C31.6654 128.088 31.8343 128.19 32.0183 128.257C32.2022 128.324 32.3975 128.354 32.593 128.345Z" fill="#191D32"/>
</svg>
