<svg width="47" height="47" viewBox="0 0 47 47" fill="none" xmlns="http://www.w3.org/2000/svg">
<path fill-rule="evenodd" clip-rule="evenodd" d="M11.0386 11.0372C14.3405 7.73306 18.8266 5.875 23.5 5.875C28.1734 5.875 32.6595 7.73306 35.9614 11.0372C39.2661 14.3413 41.125 18.8274 41.125 23.5C41.125 28.1726 39.2661 32.6587 35.9614 35.9628C32.6595 39.2669 28.1734 41.125 23.5 41.125C18.8266 41.125 14.3405 39.2669 11.0386 35.9628C7.73389 32.6587 5.875 28.1726 5.875 23.5C5.875 18.8274 7.73389 14.3413 11.0386 11.0372ZM24.1306 18.8866C22.4177 19.5996 18.9919 21.0754 13.8531 23.3138C13.0187 23.6456 12.5807 23.9703 12.5422 24.2876C12.4744 24.8235 13.1455 25.0348 14.0575 25.3221C14.1826 25.3615 14.3123 25.4023 14.4452 25.4456C15.3457 25.738 16.5573 26.0803 17.1852 26.0938C17.758 26.1062 18.3942 25.8708 19.0964 25.3877C23.8992 22.1472 26.375 20.5092 26.532 20.4739C26.6421 20.4492 26.7937 20.4178 26.8956 20.5095C27.0002 20.6009 26.9891 20.7744 26.9781 20.8209C26.9132 21.104 24.2866 23.5461 22.9198 24.8168C22.4901 25.2163 22.1849 25.5001 22.123 25.5645C21.9847 25.7083 21.8437 25.8442 21.7081 25.9748C20.8724 26.7805 20.2454 27.3849 21.743 28.3716C22.4692 28.8499 23.0488 29.2447 23.628 29.6393C24.2504 30.0632 24.8725 30.4869 25.6755 31.0137C25.882 31.149 26.0792 31.2896 26.2712 31.4265C27.0012 31.9468 27.6569 32.4143 28.468 32.3398C28.9389 32.2965 29.4264 31.8537 29.6715 30.5329C30.2553 27.4113 31.4037 20.6483 31.6681 17.8613C31.6929 17.6173 31.6626 17.3047 31.6405 17.1676C31.6157 17.0305 31.5661 16.8349 31.3899 16.6904C31.1778 16.5188 30.8529 16.4827 30.7069 16.4852C30.0432 16.497 29.0271 16.8506 24.1306 18.8866Z" fill="#898EA3"/>
</svg>
